<svg width="18" height="19" viewBox="0 0 18 19" fill="none" xmlns="http://www.w3.org/2000/svg">
<path fill-rule="evenodd" clip-rule="evenodd" d="M2.50439 9.5C2.50439 9.08579 2.84018 8.75 3.25439 8.75L12.944 8.75L10.2241 6.03036C9.93118 5.73748 9.93116 5.2626 10.224 4.9697C10.5169 4.67679 10.9918 4.67676 11.2847 4.96964L15.2851 8.96964C15.4258 9.1103 15.5048 9.30107 15.5048 9.5C15.5048 9.69893 15.4258 9.8897 15.2851 10.0304L11.2847 14.0304C10.9918 14.3232 10.5169 14.3232 10.224 14.0303C9.93116 13.7374 9.93118 13.2625 10.2241 12.9696L12.944 10.25L3.25439 10.25C2.84018 10.25 2.50439 9.91421 2.50439 9.5Z" fill="white"/>
</svg>
