<svg width="500" height="500" viewBox="0 0 500 500" fill="none" xmlns="http://www.w3.org/2000/svg">
<rect width="500" height="500" rx="250" fill="white"/>
<path d="M90.7405 407.411H141.88C147.317 407.41 152.667 405.627 157.447 402.224C162.227 398.822 166.286 393.907 169.257 387.923L228.423 268.718V407.411H283.592C289.034 407.411 294.39 405.626 299.176 402.22C303.961 398.814 308.025 393.893 310.999 387.903L438.999 130.025H388.383C381.549 130.026 374.825 132.277 368.824 136.572C362.822 140.868 357.735 147.071 354.028 154.615L299.29 266.056V128H247.796C242.466 127.999 237.219 129.74 232.528 133.066C227.836 136.391 223.848 141.198 220.921 147.053L90.7405 407.411Z" fill="url(#paint0_linear_430_27317)"/>
<path opacity="0.34" d="M353.304 156.093L299.291 266.056V128C292.52 128 233.816 263.717 228.424 268.718L229.194 407.411H283.608C289.05 407.411 294.407 405.626 299.192 402.22C303.977 398.814 308.041 393.893 311.015 387.903L439 130.025H389.701C382.46 130.03 375.336 132.418 368.979 136.972C362.621 141.525 357.232 148.099 353.304 156.093Z" fill="url(#paint1_linear_430_27317)"/>
<path d="M89 158.533V271.917L162.016 128H112.232C106.071 128 100.161 131.217 95.8045 136.943C91.4477 142.669 89 150.435 89 158.533Z" fill="url(#paint2_linear_430_27317)"/>
<defs>
<linearGradient id="paint0_linear_430_27317" x1="202.226" y1="174.412" x2="450.59" y2="497.615" gradientUnits="userSpaceOnUse">
<stop stop-color="#3FA2FF"/>
<stop offset="1" stop-color="#5EE1E6"/>
</linearGradient>
<linearGradient id="paint1_linear_430_27317" x1="267.031" y1="173.141" x2="411.651" y2="292.484" gradientUnits="userSpaceOnUse">
<stop/>
<stop offset="1" stop-opacity="0"/>
</linearGradient>
<linearGradient id="paint2_linear_430_27317" x1="112.374" y1="151.906" x2="221.897" y2="209.921" gradientUnits="userSpaceOnUse">
<stop stop-color="#3FA2FF"/>
<stop offset="1" stop-color="#5EE1E6"/>
</linearGradient>
</defs>
</svg>
